<!DOCTYPE svg PUBLIC "-//W3C//DTD SVG 1.1//EN" "http://www.w3.org/Graphics/SVG/1.1/DTD/svg11.dtd">

<svg height="800px" width="800px" version="1.1" id="Capa_1" xmlns="http://www.w3.org/2000/svg" xmlns:xlink="http://www.w3.org/1999/xlink" viewBox="0 0 271.714 271.714" xml:space="preserve" fill="#000000" stroke="#000000">

<g id="SVGRepo_bgCarrier" stroke-width="0"/>

<g id="SVGRepo_tracerCarrier" stroke-linecap="round" stroke-linejoin="round"/>

<g id="SVGRepo_iconCarrier"> <g> <path style="fill:#ffffff;" d="M85.184,107.582h110.754c6.021,0,10.94,4.92,10.94,10.94v0.003c0,6.019-4.92,10.941-10.94,10.941 H85.184c-6.019,0-10.939-4.922-10.939-10.941v-0.003C74.245,112.502,79.165,107.582,85.184,107.582z"/> <path style="fill:#ffffff;" d="M191.383,81.237c6.588,0,11.935,5.346,11.935,11.935s-5.347,11.935-11.935,11.935 c-6.589,0-11.935-5.346-11.935-11.935S184.795,81.237,191.383,81.237z"/> <path style="fill:#ffffff;" d="M164.193,62.004c6.588,0,11.936,5.346,11.936,11.934c0,6.589-5.348,11.935-11.936,11.935 c-6.59,0-11.936-5.346-11.936-11.935C152.257,67.35,157.603,62.004,164.193,62.004z"/> <path style="fill:#ffffff;" d="M137.336,72.615c6.588,0,11.934,5.346,11.934,11.935s-5.346,11.935-11.934,11.935 c-6.589,0-11.935-5.346-11.935-11.935S130.747,72.615,137.336,72.615z"/> <path style="fill:#ffffff;" d="M159.56,33.49c6.59,0,11.936,5.346,11.936,11.935S166.15,57.36,159.56,57.36 c-6.589,0-11.935-5.346-11.935-11.935S152.971,33.49,159.56,33.49z"/> <path style="fill:#ffffff;" d="M114.132,0c6.588,0,11.934,5.346,11.934,11.935c0,6.588-5.346,11.934-11.934,11.934 c-6.589,0-11.935-5.346-11.935-11.934C102.197,5.346,107.543,0,114.132,0z"/> <path style="fill:#ffffff;" d="M61.403,22.851l59.747,81.415l-17.585-0.004L50.11,31.136c-2.267-3.112-1.267-7.11,1.5-9.785 l0.008-0.004C54.723,19.069,59.121,19.747,61.403,22.851L61.403,22.851z"/> <path style="fill:#ffffff;" d="M96.798,261.102h90.526c2.919,0,5.306,2.387,5.306,5.307v5.305H91.493v-5.305 C91.493,263.489,93.879,261.102,96.798,261.102L96.798,261.102z"/> <path style="fill:#ffffff;" d="M79.551,131.784H203.9c30.883,37.766,22.867,94.549-15.585,125.344H96.792 C56.623,230.487,44.32,172.573,79.551,131.784L79.551,131.784z"/> </g> </g>

</svg>